{
	"asset":{
		"generator":"Khronos glTF Blender I/O v4.0.44",
		"version":"2.0"
	},
	"scene":0,
	"scenes":[
		{
			"name":"Scene",
			"nodes":[
				1
			]
		}
	],
	"nodes":[
		{
			"mesh":0,
			"name":"Tab",
			"translation":[
				0,
				0.02408599853515625,
				0
			]
		},
		{
			"children":[
				0
			],
			"mesh":1,
			"name":"Can",
			"scale":[
				0.34485697746276855,
				0.34485697746276855,
				0.34485697746276855
			],
			"translation":[
				0,
				3.9951171875,
				0
			]
		}
	],
	"animations":[
		{
			"channels":[
				{
					"sampler":0,
					"target":{
						"node":1,
						"path":"rotation"
					}
				},
				{
					"sampler":1,
					"target":{
						"node":1,
						"path":"scale"
					}
				}
			],
			"name":"CanAction.001",
			"samplers":[
				{
					"input":12,
					"interpolation":"LINEAR",
					"output":13
				},
				{
					"input":12,
					"interpolation":"LINEAR",
					"output":14
				}
			]
		},
		{
			"channels":[
				{
					"sampler":0,
					"target":{
						"node":0,
						"path":"translation"
					}
				}
			],
			"name":"TabAction",
			"samplers":[
				{
					"input":15,
					"interpolation":"LINEAR",
					"output":16
				}
			]
		}
	],
	"materials":[
		{
			"doubleSided":true,
			"name":"Top of can",
			"pbrMetallicRoughness":{
				"baseColorFactor":[
					0.800000011920929,
					0.800000011920929,
					0.800000011920929,
					1
				],
				"roughnessFactor":0.30000001192092896
			}
		},
		{
			"doubleSided":true,
			"name":"Image",
			"pbrMetallicRoughness":{
				"baseColorTexture":{
					"index":0
				},
				"metallicFactor":0.699999988079071,
				"roughnessFactor":0.30000001192092896
			}
		}
	],
	"meshes":[
		{
			"name":"Circle.001",
			"primitives":[
				{
					"attributes":{
						"POSITION":0,
						"NORMAL":1,
						"TEXCOORD_0":2
					},
					"indices":3,
					"material":0
				}
			]
		},
		{
			"name":"Circle",
			"primitives":[
				{
					"attributes":{
						"POSITION":4,
						"NORMAL":5,
						"TEXCOORD_0":6
					},
					"indices":7,
					"material":0
				},
				{
					"attributes":{
						"POSITION":8,
						"NORMAL":9,
						"TEXCOORD_0":10
					},
					"indices":11,
					"material":1
				}
			]
		}
	],
	"textures":[
		{
			"sampler":0,
			"source":0
		}
	],
	"images":[
		{
			"mimeType":"image/png",
			"name":"DuffBeerBlikje",
			"uri":"DuffBeerBlikje.png"
		}
	],
	"accessors":[
		{
			"bufferView":0,
			"componentType":5126,
			"count":582,
			"max":[
				-0.08101606369018555,
				0.22366280853748322,
				0.6447947025299072
			],
			"min":[
				-2.4424424171447754,
				-1.2703131346825103e-07,
				-0.6447947025299072
			],
			"type":"VEC3"
		},
		{
			"bufferView":1,
			"componentType":5126,
			"count":582,
			"type":"VEC3"
		},
		{
			"bufferView":2,
			"componentType":5126,
			"count":582,
			"type":"VEC2"
		},
		{
			"bufferView":3,
			"componentType":5123,
			"count":3504,
			"type":"SCALAR"
		},
		{
			"bufferView":4,
			"componentType":5126,
			"count":1139,
			"max":[
				2.179389715194702,
				0.16392506659030914,
				2.9749062061309814
			],
			"min":[
				-3.750101089477539,
				-10.61081314086914,
				-2.9749062061309814
			],
			"type":"VEC3"
		},
		{
			"bufferView":5,
			"componentType":5126,
			"count":1139,
			"type":"VEC3"
		},
		{
			"bufferView":6,
			"componentType":5126,
			"count":1139,
			"type":"VEC2"
		},
		{
			"bufferView":7,
			"componentType":5123,
			"count":6594,
			"type":"SCALAR"
		},
		{
			"bufferView":8,
			"componentType":5126,
			"count":156,
			"max":[
				2.179389715194702,
				-0.6900140047073364,
				2.9749062061309814
			],
			"min":[
				-3.750101089477539,
				-9.635000228881836,
				-2.9749062061309814
			],
			"type":"VEC3"
		},
		{
			"bufferView":9,
			"componentType":5126,
			"count":156,
			"type":"VEC3"
		},
		{
			"bufferView":10,
			"componentType":5126,
			"count":156,
			"type":"VEC2"
		},
		{
			"bufferView":11,
			"componentType":5123,
			"count":684,
			"type":"SCALAR"
		},
		{
			"bufferView":12,
			"componentType":5126,
			"count":250,
			"max":[
				10.416666666666666
			],
			"min":[
				0.041666666666666664
			],
			"type":"SCALAR"
		},
		{
			"bufferView":13,
			"componentType":5126,
			"count":250,
			"type":"VEC4"
		},
		{
			"bufferView":14,
			"componentType":5126,
			"count":250,
			"type":"VEC3"
		},
		{
			"bufferView":15,
			"componentType":5126,
			"count":1,
			"max":[
				0.041666666666666664
			],
			"min":[
				0.041666666666666664
			],
			"type":"SCALAR"
		},
		{
			"bufferView":16,
			"componentType":5126,
			"count":1,
			"type":"VEC3"
		}
	],
	"bufferViews":[
		{
			"buffer":0,
			"byteLength":6984,
			"byteOffset":0,
			"target":34962
		},
		{
			"buffer":0,
			"byteLength":6984,
			"byteOffset":6984,
			"target":34962
		},
		{
			"buffer":0,
			"byteLength":4656,
			"byteOffset":13968,
			"target":34962
		},
		{
			"buffer":0,
			"byteLength":7008,
			"byteOffset":18624,
			"target":34963
		},
		{
			"buffer":0,
			"byteLength":13668,
			"byteOffset":25632,
			"target":34962
		},
		{
			"buffer":0,
			"byteLength":13668,
			"byteOffset":39300,
			"target":34962
		},
		{
			"buffer":0,
			"byteLength":9112,
			"byteOffset":52968,
			"target":34962
		},
		{
			"buffer":0,
			"byteLength":13188,
			"byteOffset":62080,
			"target":34963
		},
		{
			"buffer":0,
			"byteLength":1872,
			"byteOffset":75268,
			"target":34962
		},
		{
			"buffer":0,
			"byteLength":1872,
			"byteOffset":77140,
			"target":34962
		},
		{
			"buffer":0,
			"byteLength":1248,
			"byteOffset":79012,
			"target":34962
		},
		{
			"buffer":0,
			"byteLength":1368,
			"byteOffset":80260,
			"target":34963
		},
		{
			"buffer":0,
			"byteLength":1000,
			"byteOffset":81628
		},
		{
			"buffer":0,
			"byteLength":4000,
			"byteOffset":82628
		},
		{
			"buffer":0,
			"byteLength":3000,
			"byteOffset":86628
		},
		{
			"buffer":0,
			"byteLength":4,
			"byteOffset":89628
		},
		{
			"buffer":0,
			"byteLength":12,
			"byteOffset":89632
		}
	],
	"samplers":[
		{
			"magFilter":9729,
			"minFilter":9987,
			"wrapS":33071,
			"wrapT":33071
		}
	],
	"buffers":[
		{
			"byteLength":89644,
			"uri":"blikje.bin"
		}
	]
}
