{
	"asset":{
		"generator":"Khronos glTF Blender I/O v4.0.44",
		"version":"2.0"
	},
	"scene":0,
	"scenes":[
		{
			"name":"Scene",
			"nodes":[
				1,
				2,
				3,
				4
			]
		}
	],
	"nodes":[
		{
			"mesh":0,
			"name":"Donut"
		},
		{
			"children":[
				0
			],
			"mesh":1,
			"name":"IcingLong"
		},
		{
			"mesh":2,
			"name":"SprinkleLong",
			"translation":[
				-1.1571166515350342,
				0.02329672873020172,
				0.03295036405324936
			]
		},
		{
			"mesh":3,
			"name":"SprinkleMid",
			"translation":[
				-1.175029993057251,
				0.02329672873020172,
				0.03295036405324936
			]
		},
		{
			"mesh":4,
			"name":"SprinkleShort",
			"translation":[
				-1.1944057941436768,
				0.02329672873020172,
				0.03295036405324936
			]
		}
	],
	"animations":[
		{
			"channels":[
				{
					"sampler":0,
					"target":{
						"node":1,
						"path":"translation"
					}
				},
				{
					"sampler":1,
					"target":{
						"node":1,
						"path":"rotation"
					}
				}
			],
			"name":"IcingLongAction.002",
			"samplers":[
				{
					"input":22,
					"interpolation":"LINEAR",
					"output":23
				},
				{
					"input":22,
					"interpolation":"LINEAR",
					"output":24
				}
			]
		},
		{
			"channels":[
				{
					"sampler":0,
					"target":{
						"node":0,
						"path":"translation"
					}
				},
				{
					"sampler":1,
					"target":{
						"node":0,
						"path":"rotation"
					}
				}
			],
			"name":"DonutAction.002",
			"samplers":[
				{
					"input":25,
					"interpolation":"STEP",
					"output":26
				},
				{
					"input":25,
					"interpolation":"STEP",
					"output":27
				}
			]
		}
	],
	"materials":[
		{
			"doubleSided":true,
			"name":"DonutBase",
			"pbrMetallicRoughness":{
				"baseColorTexture":{
					"index":0
				},
				"metallicFactor":0,
				"roughnessFactor":0.5
			}
		},
		{
			"doubleSided":true,
			"name":"Sprinkles",
			"pbrMetallicRoughness":{
				"metallicFactor":0
			}
		},
		{
			"doubleSided":true,
			"name":"Material.001",
			"pbrMetallicRoughness":{
				"baseColorFactor":[
					0.9643267393112183,
					0.0512225404381752,
					0.5251747369766235,
					1
				],
				"metallicFactor":0,
				"roughnessFactor":0.30000001192092896
			}
		},
		{
			"doubleSided":true,
			"name":"Sprinkles",
			"pbrMetallicRoughness":{
				"metallicFactor":0
			}
		}
	],
	"meshes":[
		{
			"name":"Donut",
			"primitives":[
				{
					"attributes":{
						"POSITION":0,
						"NORMAL":1,
						"TEXCOORD_0":2
					},
					"indices":3,
					"material":0
				},
				{
					"attributes":{
						"POSITION":4,
						"NORMAL":5,
						"TEXCOORD_0":6
					},
					"indices":7,
					"material":1
				}
			]
		},
		{
			"name":"Torus.002",
			"primitives":[
				{
					"attributes":{
						"POSITION":8,
						"NORMAL":9,
						"TEXCOORD_0":10
					},
					"indices":11,
					"material":2
				}
			]
		},
		{
			"name":"SprinkleLong",
			"primitives":[
				{
					"attributes":{
						"POSITION":12,
						"NORMAL":13,
						"TEXCOORD_0":14
					},
					"indices":15,
					"material":3
				}
			]
		},
		{
			"name":"SprinkleMid",
			"primitives":[
				{
					"attributes":{
						"POSITION":16,
						"NORMAL":17,
						"TEXCOORD_0":18
					},
					"indices":15,
					"material":3
				}
			]
		},
		{
			"name":"SprinkleShort",
			"primitives":[
				{
					"attributes":{
						"POSITION":19,
						"NORMAL":20,
						"TEXCOORD_0":21
					},
					"indices":15,
					"material":3
				}
			]
		}
	],
	"textures":[
		{
			"sampler":0,
			"source":0
		}
	],
	"images":[
		{
			"mimeType":"image/png",
			"name":"Donut Base",
			"uri":"Donut%20Base.png"
		}
	],
	"accessors":[
		{
			"bufferView":0,
			"componentType":5126,
			"count":1725,
			"max":[
				0.392784982919693,
				0.7547517418861389,
				0.2816549837589264
			],
			"min":[
				-0.35941100120544434,
				0.04099074378609657,
				-0.22468170523643494
			],
			"type":"VEC3"
		},
		{
			"bufferView":1,
			"componentType":5126,
			"count":1725,
			"type":"VEC3"
		},
		{
			"bufferView":2,
			"componentType":5126,
			"count":1725,
			"type":"VEC2"
		},
		{
			"bufferView":3,
			"componentType":5123,
			"count":9216,
			"type":"SCALAR"
		},
		{
			"bufferView":4,
			"componentType":5126,
			"count":314816,
			"max":[
				0.3859449625015259,
				0.7784371972084045,
				0.3068874776363373
			],
			"min":[
				-0.378653883934021,
				0.09331963956356049,
				-0.09531643241643906
			],
			"type":"VEC3"
		},
		{
			"bufferView":5,
			"componentType":5126,
			"count":314816,
			"type":"VEC3"
		},
		{
			"bufferView":6,
			"componentType":5126,
			"count":314816,
			"type":"VEC2"
		},
		{
			"bufferView":7,
			"componentType":5125,
			"count":1283040,
			"type":"SCALAR"
		},
		{
			"bufferView":8,
			"componentType":5126,
			"count":27880,
			"max":[
				0.40798696875572205,
				0.7637344598770142,
				0.291352778673172
			],
			"min":[
				-0.3729519248008728,
				0.033587247133255005,
				-0.24544022977352142
			],
			"type":"VEC3"
		},
		{
			"bufferView":9,
			"componentType":5126,
			"count":27880,
			"type":"VEC3"
		},
		{
			"bufferView":10,
			"componentType":5126,
			"count":27880,
			"type":"VEC2"
		},
		{
			"bufferView":11,
			"componentType":5123,
			"count":166656,
			"type":"SCALAR"
		},
		{
			"bufferView":12,
			"componentType":5126,
			"count":184,
			"max":[
				0.005548619665205479,
				0.005548601970076561,
				0.01967342384159565
			],
			"min":[
				-0.005548582877963781,
				-0.005548600573092699,
				-0.019673390313982964
			],
			"type":"VEC3"
		},
		{
			"bufferView":13,
			"componentType":5126,
			"count":184,
			"type":"VEC3"
		},
		{
			"bufferView":14,
			"componentType":5126,
			"count":184,
			"type":"VEC2"
		},
		{
			"bufferView":15,
			"componentType":5123,
			"count":564,
			"type":"SCALAR"
		},
		{
			"bufferView":16,
			"componentType":5126,
			"count":184,
			"max":[
				0.005548619665205479,
				0.005548601970076561,
				0.012656528502702713
			],
			"min":[
				-0.005548582877963781,
				-0.005548600107431412,
				-0.019673390313982964
			],
			"type":"VEC3"
		},
		{
			"bufferView":17,
			"componentType":5126,
			"count":184,
			"type":"VEC3"
		},
		{
			"bufferView":18,
			"componentType":5126,
			"count":184,
			"type":"VEC2"
		},
		{
			"bufferView":19,
			"componentType":5126,
			"count":184,
			"max":[
				0.005548619665205479,
				0.005548601970076561,
				0.005476782098412514
			],
			"min":[
				-0.005548582877963781,
				-0.005548600107431412,
				-0.019673390313982964
			],
			"type":"VEC3"
		},
		{
			"bufferView":20,
			"componentType":5126,
			"count":184,
			"type":"VEC3"
		},
		{
			"bufferView":21,
			"componentType":5126,
			"count":184,
			"type":"VEC2"
		},
		{
			"bufferView":22,
			"componentType":5126,
			"count":250,
			"max":[
				10.416666666666666
			],
			"min":[
				0.041666666666666664
			],
			"type":"SCALAR"
		},
		{
			"bufferView":23,
			"componentType":5126,
			"count":250,
			"type":"VEC3"
		},
		{
			"bufferView":24,
			"componentType":5126,
			"count":250,
			"type":"VEC4"
		},
		{
			"bufferView":25,
			"componentType":5126,
			"count":2,
			"max":[
				10.416666666666666
			],
			"min":[
				0.041666666666666664
			],
			"type":"SCALAR"
		},
		{
			"bufferView":26,
			"componentType":5126,
			"count":2,
			"type":"VEC3"
		},
		{
			"bufferView":27,
			"componentType":5126,
			"count":2,
			"type":"VEC4"
		}
	],
	"bufferViews":[
		{
			"buffer":0,
			"byteLength":20700,
			"byteOffset":0,
			"target":34962
		},
		{
			"buffer":0,
			"byteLength":20700,
			"byteOffset":20700,
			"target":34962
		},
		{
			"buffer":0,
			"byteLength":13800,
			"byteOffset":41400,
			"target":34962
		},
		{
			"buffer":0,
			"byteLength":18432,
			"byteOffset":55200,
			"target":34963
		},
		{
			"buffer":0,
			"byteLength":3777792,
			"byteOffset":73632,
			"target":34962
		},
		{
			"buffer":0,
			"byteLength":3777792,
			"byteOffset":3851424,
			"target":34962
		},
		{
			"buffer":0,
			"byteLength":2518528,
			"byteOffset":7629216,
			"target":34962
		},
		{
			"buffer":0,
			"byteLength":5132160,
			"byteOffset":10147744,
			"target":34963
		},
		{
			"buffer":0,
			"byteLength":334560,
			"byteOffset":15279904,
			"target":34962
		},
		{
			"buffer":0,
			"byteLength":334560,
			"byteOffset":15614464,
			"target":34962
		},
		{
			"buffer":0,
			"byteLength":223040,
			"byteOffset":15949024,
			"target":34962
		},
		{
			"buffer":0,
			"byteLength":333312,
			"byteOffset":16172064,
			"target":34963
		},
		{
			"buffer":0,
			"byteLength":2208,
			"byteOffset":16505376,
			"target":34962
		},
		{
			"buffer":0,
			"byteLength":2208,
			"byteOffset":16507584,
			"target":34962
		},
		{
			"buffer":0,
			"byteLength":1472,
			"byteOffset":16509792,
			"target":34962
		},
		{
			"buffer":0,
			"byteLength":1128,
			"byteOffset":16511264,
			"target":34963
		},
		{
			"buffer":0,
			"byteLength":2208,
			"byteOffset":16512392,
			"target":34962
		},
		{
			"buffer":0,
			"byteLength":2208,
			"byteOffset":16514600,
			"target":34962
		},
		{
			"buffer":0,
			"byteLength":1472,
			"byteOffset":16516808,
			"target":34962
		},
		{
			"buffer":0,
			"byteLength":2208,
			"byteOffset":16518280,
			"target":34962
		},
		{
			"buffer":0,
			"byteLength":2208,
			"byteOffset":16520488,
			"target":34962
		},
		{
			"buffer":0,
			"byteLength":1472,
			"byteOffset":16522696,
			"target":34962
		},
		{
			"buffer":0,
			"byteLength":1000,
			"byteOffset":16524168
		},
		{
			"buffer":0,
			"byteLength":3000,
			"byteOffset":16525168
		},
		{
			"buffer":0,
			"byteLength":4000,
			"byteOffset":16528168
		},
		{
			"buffer":0,
			"byteLength":8,
			"byteOffset":16532168
		},
		{
			"buffer":0,
			"byteLength":24,
			"byteOffset":16532176
		},
		{
			"buffer":0,
			"byteLength":32,
			"byteOffset":16532200
		}
	],
	"samplers":[
		{
			"magFilter":9729,
			"minFilter":9987
		}
	],
	"buffers":[
		{
			"byteLength":16532232,
			"uri":"roze.bin"
		}
	]
}
