{
	"asset":{
		"generator":"Khronos glTF Blender I/O v4.0.44",
		"version":"2.0"
	},
	"scene":0,
	"scenes":[
		{
			"name":"Scene",
			"nodes":[
				0
			]
		}
	],
	"nodes":[
		{
			"mesh":0,
			"name":"Donut"
		}
	],
	"materials":[
		{
			"doubleSided":true,
			"name":"DonutBase",
			"pbrMetallicRoughness":{
				"baseColorTexture":{
					"index":0
				},
				"metallicFactor":0,
				"roughnessFactor":0.5
			}
		},
		{
			"doubleSided":true,
			"name":"Material.001",
			"pbrMetallicRoughness":{
				"baseColorFactor":[
					0.9643267393112183,
					0.0512225404381752,
					0.5251747369766235,
					1
				],
				"metallicFactor":0,
				"roughnessFactor":0.30000001192092896
			}
		},
		{
			"doubleSided":true,
			"name":"Sprinkles",
			"pbrMetallicRoughness":{
				"metallicFactor":0
			}
		}
	],
	"meshes":[
		{
			"name":"Donut",
			"primitives":[
				{
					"attributes":{
						"POSITION":0,
						"NORMAL":1,
						"TEXCOORD_0":2
					},
					"indices":3,
					"material":0
				},
				{
					"attributes":{
						"POSITION":4,
						"NORMAL":5,
						"TEXCOORD_0":6
					},
					"indices":7,
					"material":1
				},
				{
					"attributes":{
						"POSITION":8,
						"NORMAL":9,
						"TEXCOORD_0":10
					},
					"indices":11,
					"material":2
				}
			]
		}
	],
	"textures":[
		{
			"sampler":0,
			"source":0
		}
	],
	"images":[
		{
			"mimeType":"image/png",
			"name":"Donut Base",
			"uri":"Donut%20Base.png"
		}
	],
	"accessors":[
		{
			"bufferView":0,
			"componentType":5126,
			"count":1725,
			"max":[
				0.392784982919693,
				0.7547517418861389,
				0.2816549837589264
			],
			"min":[
				-0.35941100120544434,
				0.04099074378609657,
				-0.22468170523643494
			],
			"type":"VEC3"
		},
		{
			"bufferView":1,
			"componentType":5126,
			"count":1725,
			"type":"VEC3"
		},
		{
			"bufferView":2,
			"componentType":5126,
			"count":1725,
			"type":"VEC2"
		},
		{
			"bufferView":3,
			"componentType":5123,
			"count":9216,
			"type":"SCALAR"
		},
		{
			"bufferView":4,
			"componentType":5126,
			"count":114805,
			"max":[
				0.407569020986557,
				0.763628363609314,
				0.29129916429519653
			],
			"min":[
				-0.3727843761444092,
				0.033877208828926086,
				-0.2447216510772705
			],
			"type":"VEC3"
		},
		{
			"bufferView":5,
			"componentType":5126,
			"count":114805,
			"type":"VEC3"
		},
		{
			"bufferView":6,
			"componentType":5126,
			"count":114805,
			"type":"VEC2"
		},
		{
			"bufferView":7,
			"componentType":5125,
			"count":666624,
			"type":"SCALAR"
		},
		{
			"bufferView":8,
			"componentType":5126,
			"count":314820,
			"max":[
				0.3852950930595398,
				0.7764305472373962,
				0.3049847483634949
			],
			"min":[
				-0.3765396475791931,
				0.0941522866487503,
				-0.09460029006004333
			],
			"type":"VEC3"
		},
		{
			"bufferView":9,
			"componentType":5126,
			"count":314820,
			"type":"VEC3"
		},
		{
			"bufferView":10,
			"componentType":5126,
			"count":314820,
			"type":"VEC2"
		},
		{
			"bufferView":11,
			"componentType":5125,
			"count":1283040,
			"type":"SCALAR"
		}
	],
	"bufferViews":[
		{
			"buffer":0,
			"byteLength":20700,
			"byteOffset":0,
			"target":34962
		},
		{
			"buffer":0,
			"byteLength":20700,
			"byteOffset":20700,
			"target":34962
		},
		{
			"buffer":0,
			"byteLength":13800,
			"byteOffset":41400,
			"target":34962
		},
		{
			"buffer":0,
			"byteLength":18432,
			"byteOffset":55200,
			"target":34963
		},
		{
			"buffer":0,
			"byteLength":1377660,
			"byteOffset":73632,
			"target":34962
		},
		{
			"buffer":0,
			"byteLength":1377660,
			"byteOffset":1451292,
			"target":34962
		},
		{
			"buffer":0,
			"byteLength":918440,
			"byteOffset":2828952,
			"target":34962
		},
		{
			"buffer":0,
			"byteLength":2666496,
			"byteOffset":3747392,
			"target":34963
		},
		{
			"buffer":0,
			"byteLength":3777840,
			"byteOffset":6413888,
			"target":34962
		},
		{
			"buffer":0,
			"byteLength":3777840,
			"byteOffset":10191728,
			"target":34962
		},
		{
			"buffer":0,
			"byteLength":2518560,
			"byteOffset":13969568,
			"target":34962
		},
		{
			"buffer":0,
			"byteLength":5132160,
			"byteOffset":16488128,
			"target":34963
		}
	],
	"samplers":[
		{
			"magFilter":9729,
			"minFilter":9987
		}
	],
	"buffers":[
		{
			"byteLength":21620288,
			"uri":"donut.bin"
		}
	]
}
