{
	"asset":{
		"generator":"Khronos glTF Blender I/O v4.0.44",
		"version":"2.0"
	},
	"extensionsUsed":[
		"KHR_materials_specular",
		"KHR_materials_ior",
		"KHR_materials_transmission"
	],
	"scene":0,
	"scenes":[
		{
			"name":"Scene",
			"nodes":[
				0,
				1,
				2
			]
		}
	],
	"nodes":[
		{
			"mesh":0,
			"name":"Pool",
			"scale":[
				2.3948395252227783,
				1,
				2.5807018280029297
			],
			"translation":[
				-0.0427124947309494,
				1.005336046218872,
				0
			]
		},
		{
			"mesh":1,
			"name":"Water",
			"translation":[
				0,
				3.133772611618042,
				0
			]
		},
		{
			"mesh":2,
			"name":"Trap",
			"rotation":[
				-0.05574992671608925,
				0.764626145362854,
				0.05733463913202286,
				0.6394933462142944
			],
			"scale":[
				0.022314177826046944,
				0.8917324542999268,
				0.02439010515809059
			],
			"translation":[
				2.539027214050293,
				1.0433721542358398,
				0.27472612261772156
			]
		}
	],
	"materials":[
		{
			"doubleSided":true,
			"extensions":{
				"KHR_materials_specular":{
					"specularColorFactor":[
						1.2000000476837158,
						1.2000000476837158,
						1.2000000476837158
					]
				},
				"KHR_materials_ior":{
					"ior":1.4500000476837158
				}
			},
			"name":"Pool",
			"pbrMetallicRoughness":{
				"baseColorFactor":[
					0.027918558567762375,
					0.20206759870052338,
					0.6203343868255615,
					1
				],
				"metallicFactor":0,
				"roughnessFactor":0.7070796489715576
			}
		},
		{
			"doubleSided":true,
			"extensions":{
				"KHR_materials_specular":{
					"specularColorFactor":[
						1.2000000476837158,
						1.2000000476837158,
						1.2000000476837158
					]
				},
				"KHR_materials_ior":{
					"ior":1.4500000476837158
				}
			},
			"name":"Pool.001",
			"pbrMetallicRoughness":{
				"baseColorFactor":[
					0.11925037205219269,
					0.4743275046348572,
					1,
					1
				],
				"metallicFactor":0,
				"roughnessFactor":0.7070796489715576
			}
		},
		{
			"doubleSided":true,
			"name":"Pool.002",
			"pbrMetallicRoughness":{
				"baseColorFactor":[
					0.06435144692659378,
					0.16670916974544525,
					0.32455092668533325,
					1
				],
				"metallicFactor":0,
				"roughnessFactor":0.5
			}
		},
		{
			"doubleSided":true,
			"extensions":{
				"KHR_materials_transmission":{
					"transmissionFactor":0.20000000298023224
				},
				"KHR_materials_ior":{
					"ior":1.2999999523162842
				}
			},
			"name":"Water",
			"pbrMetallicRoughness":{
				"baseColorFactor":[
					0.012710724957287312,
					0.4194871783256531,
					0.7552134394645691,
					1
				],
				"metallicFactor":0,
				"roughnessFactor":0.05000000074505806
			}
		},
		{
			"doubleSided":true,
			"name":"TrapKant",
			"pbrMetallicRoughness":{}
		},
		{
			"doubleSided":true,
			"name":"Trap",
			"pbrMetallicRoughness":{
				"baseColorFactor":[
					0.011109777726233006,
					0.06976963579654694,
					0.24405774474143982,
					1
				],
				"metallicFactor":0,
				"roughnessFactor":0.5
			}
		}
	],
	"meshes":[
		{
			"name":"Cylinder",
			"primitives":[
				{
					"attributes":{
						"POSITION":0,
						"NORMAL":1,
						"TEXCOORD_0":2
					},
					"indices":3,
					"material":0
				},
				{
					"attributes":{
						"POSITION":4,
						"NORMAL":5,
						"TEXCOORD_0":6
					},
					"indices":7,
					"material":1
				},
				{
					"attributes":{
						"POSITION":8,
						"NORMAL":9,
						"TEXCOORD_0":10
					},
					"indices":11,
					"material":2
				}
			]
		},
		{
			"name":"Plane.002",
			"primitives":[
				{
					"attributes":{
						"POSITION":12,
						"NORMAL":13,
						"TEXCOORD_0":14
					},
					"indices":15,
					"material":3
				}
			]
		},
		{
			"name":"Cylinder.006",
			"primitives":[
				{
					"attributes":{
						"POSITION":16,
						"NORMAL":17,
						"TEXCOORD_0":18
					},
					"indices":19,
					"material":4
				},
				{
					"attributes":{
						"POSITION":20,
						"NORMAL":21,
						"TEXCOORD_0":22
					},
					"indices":23,
					"material":5
				}
			]
		}
	],
	"accessors":[
		{
			"bufferView":0,
			"componentType":5126,
			"count":1916,
			"max":[
				1.0479562282562256,
				0.34327661991119385,
				1.0485191345214844
			],
			"min":[
				-1.048170566558838,
				-0.997489869594574,
				-1.0485191345214844
			],
			"type":"VEC3"
		},
		{
			"bufferView":1,
			"componentType":5126,
			"count":1916,
			"type":"VEC3"
		},
		{
			"bufferView":2,
			"componentType":5126,
			"count":1916,
			"type":"VEC2"
		},
		{
			"bufferView":3,
			"componentType":5123,
			"count":9702,
			"type":"SCALAR"
		},
		{
			"bufferView":4,
			"componentType":5126,
			"count":1014,
			"max":[
				0.9430668354034424,
				0.26314353942871094,
				0.9465236663818359
			],
			"min":[
				-0.9404606223106384,
				-0.896149218082428,
				-0.9465236663818359
			],
			"type":"VEC3"
		},
		{
			"bufferView":5,
			"componentType":5126,
			"count":1014,
			"type":"VEC3"
		},
		{
			"bufferView":6,
			"componentType":5126,
			"count":1014,
			"type":"VEC2"
		},
		{
			"bufferView":7,
			"componentType":5123,
			"count":4950,
			"type":"SCALAR"
		},
		{
			"bufferView":8,
			"componentType":5126,
			"count":2113,
			"max":[
				0.9847579598426819,
				0.6746468544006348,
				0.9878866076469421
			],
			"min":[
				-0.9813958406448364,
				0.32452142238616943,
				-0.9878866076469421
			],
			"type":"VEC3"
		},
		{
			"bufferView":9,
			"componentType":5126,
			"count":2113,
			"type":"VEC3"
		},
		{
			"bufferView":10,
			"componentType":5126,
			"count":2113,
			"type":"VEC2"
		},
		{
			"bufferView":11,
			"componentType":5123,
			"count":11088,
			"type":"SCALAR"
		},
		{
			"bufferView":12,
			"componentType":5126,
			"count":84465,
			"max":[
				2.0558929443359375,
				-1.772818684577942,
				2.2736306190490723
			],
			"min":[
				-2.1355338096618652,
				-1.9059815406799316,
				-2.273630380630493
			],
			"type":"VEC3"
		},
		{
			"bufferView":13,
			"componentType":5126,
			"count":84465,
			"type":"VEC3"
		},
		{
			"bufferView":14,
			"componentType":5126,
			"count":84465,
			"type":"VEC2"
		},
		{
			"bufferView":15,
			"componentType":5125,
			"count":126720,
			"type":"SCALAR"
		},
		{
			"bufferView":16,
			"componentType":5126,
			"count":2640,
			"max":[
				32.54473114013672,
				1.658886194229126,
				10.162765502929688
			],
			"min":[
				-2.0696940422058105,
				-1.2200467586517334,
				-42.52743148803711
			],
			"type":"VEC3"
		},
		{
			"bufferView":17,
			"componentType":5126,
			"count":2640,
			"type":"VEC3"
		},
		{
			"bufferView":18,
			"componentType":5126,
			"count":2640,
			"type":"VEC2"
		},
		{
			"bufferView":19,
			"componentType":5123,
			"count":15336,
			"type":"SCALAR"
		},
		{
			"bufferView":20,
			"componentType":5126,
			"count":120,
			"max":[
				31.328218460083008,
				1.1007109880447388,
				9.814291000366211
			],
			"min":[
				-3.440730094909668,
				-0.8120754957199097,
				-23.1063232421875
			],
			"type":"VEC3"
		},
		{
			"bufferView":21,
			"componentType":5126,
			"count":120,
			"type":"VEC3"
		},
		{
			"bufferView":22,
			"componentType":5126,
			"count":120,
			"type":"VEC2"
		},
		{
			"bufferView":23,
			"componentType":5123,
			"count":180,
			"type":"SCALAR"
		}
	],
	"bufferViews":[
		{
			"buffer":0,
			"byteLength":22992,
			"byteOffset":0,
			"target":34962
		},
		{
			"buffer":0,
			"byteLength":22992,
			"byteOffset":22992,
			"target":34962
		},
		{
			"buffer":0,
			"byteLength":15328,
			"byteOffset":45984,
			"target":34962
		},
		{
			"buffer":0,
			"byteLength":19404,
			"byteOffset":61312,
			"target":34963
		},
		{
			"buffer":0,
			"byteLength":12168,
			"byteOffset":80716,
			"target":34962
		},
		{
			"buffer":0,
			"byteLength":12168,
			"byteOffset":92884,
			"target":34962
		},
		{
			"buffer":0,
			"byteLength":8112,
			"byteOffset":105052,
			"target":34962
		},
		{
			"buffer":0,
			"byteLength":9900,
			"byteOffset":113164,
			"target":34963
		},
		{
			"buffer":0,
			"byteLength":25356,
			"byteOffset":123064,
			"target":34962
		},
		{
			"buffer":0,
			"byteLength":25356,
			"byteOffset":148420,
			"target":34962
		},
		{
			"buffer":0,
			"byteLength":16904,
			"byteOffset":173776,
			"target":34962
		},
		{
			"buffer":0,
			"byteLength":22176,
			"byteOffset":190680,
			"target":34963
		},
		{
			"buffer":0,
			"byteLength":1013580,
			"byteOffset":212856,
			"target":34962
		},
		{
			"buffer":0,
			"byteLength":1013580,
			"byteOffset":1226436,
			"target":34962
		},
		{
			"buffer":0,
			"byteLength":675720,
			"byteOffset":2240016,
			"target":34962
		},
		{
			"buffer":0,
			"byteLength":506880,
			"byteOffset":2915736,
			"target":34963
		},
		{
			"buffer":0,
			"byteLength":31680,
			"byteOffset":3422616,
			"target":34962
		},
		{
			"buffer":0,
			"byteLength":31680,
			"byteOffset":3454296,
			"target":34962
		},
		{
			"buffer":0,
			"byteLength":21120,
			"byteOffset":3485976,
			"target":34962
		},
		{
			"buffer":0,
			"byteLength":30672,
			"byteOffset":3507096,
			"target":34963
		},
		{
			"buffer":0,
			"byteLength":1440,
			"byteOffset":3537768,
			"target":34962
		},
		{
			"buffer":0,
			"byteLength":1440,
			"byteOffset":3539208,
			"target":34962
		},
		{
			"buffer":0,
			"byteLength":960,
			"byteOffset":3540648,
			"target":34962
		},
		{
			"buffer":0,
			"byteLength":360,
			"byteOffset":3541608,
			"target":34963
		}
	],
	"buffers":[
		{
			"byteLength":3541968,
			"uri":"pool.bin"
		}
	]
}
